<?xml version="1.0" encoding="UTF-8" standalone="no"?>
<!DOCTYPE svg PUBLIC "-//W3C//DTD SVG 1.1//EN" "http://www.w3.org/Graphics/SVG/1.1/DTD/svg11.dtd">
<svg width="100%" height="100%" viewBox="0 0 50 50" version="1.1" xmlns="http://www.w3.org/2000/svg" xmlns:xlink="http://www.w3.org/1999/xlink" xml:space="preserve" xmlns:serif="http://www.serif.com/" style="fill-rule:evenodd;clip-rule:evenodd;stroke-linejoin:round;stroke-miterlimit:2;">
    <g transform="matrix(4.16667,0,0,4.16667,0,0)">
        <path d="M6,0C7.516,0 8.925,0.566 9.978,1.523C9.376,1.179 8.694,0.999 8,1C6.941,1.005 5.927,1.43 5.179,2.179C4.421,2.921 3.996,3.939 4,5C4,6.095 4.463,7.105 5.179,7.821C5.921,8.579 6.939,9.004 8,9C10.019,8.985 11.731,7.456 11.974,5.452C11.991,5.632 12,5.816 12,6C11.992,7.588 11.356,9.11 10.232,10.232C9.11,11.356 7.588,11.992 6,12C4.409,12.007 2.881,11.368 1.768,10.232C0.644,9.11 0.008,7.588 -0,6C-0.007,4.409 0.632,2.881 1.768,1.768C2.89,0.644 4.412,0.008 6,-0Z" style="fill:white;fill-rule:nonzero;"/>
    </g>
</svg>
